<svg width="512" height="512" viewBox="0 0 512 512" fill="none" xmlns="http://www.w3.org/2000/svg">
  <!-- Background Circle -->
  <circle cx="256" cy="256" r="256" fill="#2563eb"/>
  
  <!-- Menu Card Background -->
  <rect x="128" y="96" width="256" height="320" rx="24" fill="white" stroke="#e5e7eb" stroke-width="2"/>
  
  <!-- Menu Title Bar -->
  <rect x="128" y="96" width="256" height="64" rx="24" fill="#f3f4f6"/>
  <rect x="144" y="120" width="128" height="16" rx="8" fill="#9ca3af"/>
  
  <!-- Menu Items -->
  <rect x="144" y="184" width="200" height="12" rx="6" fill="#374151"/>
  <rect x="144" y="208" width="160" height="8" rx="4" fill="#9ca3af"/>
  <rect x="144" y="240" width="180" height="12" rx="6" fill="#374151"/>
  <rect x="144" y="264" width="140" height="8" rx="4" fill="#9ca3af"/>
  <rect x="144" y="296" width="200" height="12" rx="6" fill="#374151"/>
  <rect x="144" y="320" width="170" height="8" rx="4" fill="#9ca3af"/>
  
  <!-- Price Tags -->
  <rect x="320" y="180" width="48" height="20" rx="10" fill="#10b981"/>
  <text x="344" y="194" font-family="Arial, sans-serif" font-size="12" font-weight="bold" text-anchor="middle" fill="white">$12</text>
  
  <rect x="320" y="236" width="48" height="20" rx="10" fill="#10b981"/>
  <text x="344" y="250" font-family="Arial, sans-serif" font-size="12" font-weight="bold" text-anchor="middle" fill="white">$8</text>
  
  <rect x="320" y="292" width="48" height="20" rx="10" fill="#10b981"/>
  <text x="344" y="306" font-family="Arial, sans-serif" font-size="12" font-weight="bold" text-anchor="middle" fill="white">$15</text>
  
  <!-- AI Sparkle Icon -->
  <g transform="translate(340, 120)">
    <circle cx="12" cy="12" r="8" fill="#fbbf24" opacity="0.9"/>
    <path d="M12 4l2 6-6-2 6 2-2 6 2-6 6 2-6-2 2-6z" fill="white" opacity="0.8"/>
  </g>
  
  <!-- QR Code in corner -->
  <g transform="translate(300, 360)">
    <rect width="48" height="48" fill="white" stroke="#374151" stroke-width="1"/>
    <rect x="4" y="4" width="8" height="8" fill="#374151"/>
    <rect x="16" y="4" width="8" height="8" fill="#374151"/>
    <rect x="28" y="4" width="8" height="8" fill="#374151"/>
    <rect x="4" y="16" width="8" height="8" fill="#374151"/>
    <rect x="16" y="16" width="8" height="8" fill="white"/>
    <rect x="28" y="16" width="8" height="8" fill="#374151"/>
    <rect x="4" y="28" width="8" height="8" fill="#374151"/>
    <rect x="16" y="28" width="8" height="8" fill="#374151"/>
    <rect x="28" y="28" width="8" height="8" fill="white"/>
    <rect x="36" y="4" width="8" height="8" fill="#374151"/>
    <rect x="36" y="16" width="8" height="8" fill="white"/>
    <rect x="36" y="28" width="8" height="8" fill="#374151"/>
  </g>
</svg>
